<svg width="26" height="27" viewBox="0 0 26 27" fill="none" xmlns="http://www.w3.org/2000/svg">
<path d="M18.1 10.7318C18.0401 10.7668 16.6141 11.506 16.6141 13.1449C16.6813 15.014 18.4136 15.6694 18.4433 15.6694C18.4136 15.7044 18.1818 16.5623 17.4951 17.4616C16.9502 18.2363 16.3453 19.0173 15.4268 19.0173C14.5531 19.0173 14.2394 18.501 13.2313 18.501C12.1487 18.501 11.8423 19.0173 11.0134 19.0173C10.0949 19.0173 9.44526 18.1944 8.87059 17.427C8.12399 16.4227 7.48941 14.8466 7.46701 13.3332C7.45191 12.5313 7.61652 11.743 8.03438 11.0734C8.62416 10.1386 9.67708 9.5041 10.8269 9.48317C11.7079 9.45542 12.492 10.0481 13.0297 10.0481C13.5449 10.0481 14.5083 9.48317 15.5982 9.48317C16.0687 9.48363 17.3232 9.61599 18.1 10.7318ZM12.9552 9.32306C12.7984 8.59071 13.2313 7.85837 13.6346 7.39122C14.1498 6.82627 14.9636 6.44281 15.6654 6.44281C15.7102 7.17515 15.4263 7.8934 14.9188 8.4165C14.4635 8.98145 13.6794 9.40675 12.9552 9.32306Z" fill="white"/>
</svg>
