<svg width="26" height="27" viewBox="0 0 26 27" fill="none" xmlns="http://www.w3.org/2000/svg">
<path d="M21.3014 9.97817C21.2039 10.0352 18.8839 11.2378 18.8839 13.9043C18.9932 16.9452 21.8117 18.0117 21.86 18.0117C21.8117 18.0687 21.4345 19.4644 20.3173 20.9276C19.4306 22.1879 18.4465 23.4586 16.9521 23.4586C15.5305 23.4586 15.0203 22.6186 13.38 22.6186C11.6186 22.6186 11.1202 23.4586 9.77159 23.4586C8.27717 23.4586 7.22015 22.1198 6.28515 20.8713C5.07045 19.2372 4.03799 16.6729 4.00154 14.2107C3.97698 12.9059 4.2448 11.6234 4.92465 10.534C5.88421 9.01311 7.59732 7.98071 9.46811 7.94666C10.9015 7.90152 12.1772 8.86583 13.052 8.86583C13.8903 8.86583 15.4576 7.94666 17.231 7.94666C17.9964 7.9474 20.0375 8.16276 21.3014 9.97817ZM12.9308 7.68616C12.6756 6.49463 13.38 5.30311 14.0361 4.54306C14.8745 3.62388 16.1985 3 17.3403 3C17.4132 4.19152 16.9513 5.3601 16.1256 6.21119C15.3847 7.13036 14.109 7.82233 12.9308 7.68616Z" fill="black"/>
</svg>
