<svg width="19" height="18" viewBox="0 0 19 18" fill="none" xmlns="http://www.w3.org/2000/svg">
<path d="M17.5578 9.16511C17.5578 8.52432 17.5046 8.0567 17.3895 7.57178H9.90552V10.464H14.2985C14.2099 11.1828 13.7317 12.2652 12.6688 12.9926L12.6539 13.0894L15.0202 14.8817L15.1842 14.8977C16.6898 13.5382 17.5578 11.5378 17.5578 9.16511" fill="black"/>
<path d="M9.90505 16.7855C12.0572 16.7855 13.864 16.0927 15.1837 14.8978L12.6683 12.9926C11.9952 13.4516 11.0918 13.772 9.90505 13.772C7.79715 13.772 6.0081 12.4125 5.37035 10.5333L5.27687 10.5411L2.81636 12.4029L2.78418 12.4904C4.09497 15.0363 6.78744 16.7855 9.90505 16.7855Z" fill="black"/>
<path d="M5.37073 10.5334C5.20246 10.0485 5.10507 9.52887 5.10507 8.99201C5.10507 8.45508 5.20246 7.93553 5.36188 7.45061L5.35742 7.34733L2.86607 5.45563L2.78456 5.49354C2.24432 6.55001 1.93433 7.73638 1.93433 8.99201C1.93433 10.2476 2.24432 11.4339 2.78456 12.4904L5.37073 10.5334" fill="black"/>
<path d="M9.90509 4.21191C11.4019 4.21191 12.4115 4.84405 12.9873 5.37232L15.2369 3.22475C13.8553 1.96912 12.0573 1.19843 9.90509 1.19843C6.78746 1.19843 4.09498 2.94763 2.78418 5.4935L5.36151 7.45058C6.00811 5.57147 7.79718 4.21191 9.90509 4.21191" fill="black"/>
</svg>
