<svg width="25" height="24" viewBox="0 0 25 24" fill="none" xmlns="http://www.w3.org/2000/svg">
<g clip-path="url(#clip0_8_389)">
<path d="M12.5 3C13.2017 3 13.8872 3.21011 14.8135 3.74121C15.7656 4.28717 16.8839 5.11817 18.4678 6.29785C19.3257 6.93682 19.9217 7.38187 20.3633 7.76953C20.7938 8.14748 21.0215 8.42391 21.168 8.69922C21.4735 9.27335 21.5 9.93275 21.5 11.9512V13.4424C21.5 15.4923 21.4972 16.9127 21.3291 17.9824C21.1684 19.0052 20.8763 19.5675 20.3857 19.9873C19.8726 20.4264 19.1482 20.7028 17.8721 20.8496C16.581 20.9981 14.8813 21 12.5 21C10.1187 21 8.41895 20.9981 7.12793 20.8496C5.85177 20.7028 5.12736 20.4264 4.61426 19.9873C4.1237 19.5675 3.83161 19.0052 3.6709 17.9824C3.50284 16.9127 3.5 15.4923 3.5 13.4424V11.9512C3.5 9.93275 3.52653 9.27335 3.83203 8.69922C3.97853 8.42391 4.20623 8.14748 4.63672 7.76953C5.07829 7.38187 5.67434 6.93682 6.53223 6.29785C8.11608 5.11817 9.23437 4.28717 10.1865 3.74121C11.1128 3.21011 11.7983 3 12.5 3Z" stroke="#2F2F2F" stroke-width="2"/>
</g>
<defs>
<clipPath id="clip0_8_389">
<rect x="0.5" width="24" height="24" rx="12" fill="white"/>
</clipPath>
</defs>
</svg>
