<svg width="1024" height="1024" viewBox="0 0 1024 1024" fill="none" xmlns="http://www.w3.org/2000/svg">
<g clip-path="url(#clip0_26_1135)">
<path fill-rule="evenodd" clip-rule="evenodd" d="M608.192 458.062C607.655 454.238 608.383 456.228 606.633 453.22L598.398 454.982C582.412 463.266 599.908 450.303 583.718 454.411L581.542 454.998C581.396 455.024 581.023 455.119 580.878 455.134L571.175 455.575C568.012 456.649 570.627 455.134 569.255 456.252C567.502 457.678 568.372 456.966 568.972 460.5C563.569 460.036 556.98 456.279 550.819 451.531C547.586 449.04 546.168 449.686 543.061 449.812C532.467 450.241 542.583 449.978 535.065 446.137C524.67 445.187 512.723 442.182 502.323 443.307C490.352 444.602 483.665 450.446 471.716 449.494C469.277 452.285 463.529 450.751 459.748 449.459C454.509 447.669 452.875 446.659 449.72 443.322C443.561 436.807 442.687 429.568 443.903 419.079L441.196 422.308C429.977 437.171 435.487 426.733 425.869 427.211C419.381 427.533 414.757 433.161 414.753 433.153C414.642 432.924 414.305 433.652 414.077 433.897C413.873 433.625 413.633 433.211 413.506 433.051C408.681 427.011 407.399 430.291 404.469 431.203C404.858 425.992 405.607 428.134 404.745 426.082C392.38 431.775 396.357 422.53 396.356 415.401L382.038 413.727C381.9 413.555 381.544 413.118 381.422 412.967C381.314 412.833 380.939 412.694 380.858 412.307C380.785 411.953 380.504 411.916 380.329 411.717C380.573 465.501 424.418 508.935 473.105 517.548C524.618 526.662 567.749 495.963 602.626 464.873C603.483 464.109 605.414 462.427 606.081 461.656C606.321 461.38 606.968 460.558 607.151 460.283C608.734 457.894 607.567 460.394 608.192 458.062Z" fill="#AE6DC9"/>
<path fill-rule="evenodd" clip-rule="evenodd" d="M482.354 612.697L482.969 607.602C494.356 607.683 516.372 600.356 528.041 597.422C530.438 593.275 535.107 592.639 541.927 589.533C572.728 575.506 613.944 539.602 624.685 509.783C619.763 514.797 616.855 520.033 611.455 525.71C571.943 567.243 528.476 593.29 462.258 587.875C398.859 582.691 358.829 527.843 369.126 472.705C370.792 463.785 374.263 457.429 376.01 450.415C330.673 495.453 340.685 618.094 479.402 608.044L482.354 612.697Z" fill="#7C2DA2"/>
<path fill-rule="evenodd" clip-rule="evenodd" d="M537.699 556.341C538.9 545.271 544.547 524.991 542.692 514.459C518.485 527.796 491.07 527.823 462.097 521.908C465.601 538.006 470.373 541.098 474.499 570.05C437.355 570.09 430.13 560.813 407.646 555.157C421.635 569.288 449.568 578.346 475.403 580.53C478.551 584.764 476.197 585.336 483.287 585.446C494.76 585.624 525.784 581.774 533.224 574.19C543.49 563.726 560.259 564.849 584.658 534.928C590.476 527.794 601.866 510.068 604.235 499.189C590.381 519.976 566.259 547.782 537.699 556.341Z" fill="#651C88"/>
<path fill-rule="evenodd" clip-rule="evenodd" d="M481.894 617.99L483.254 637.397C467.543 638.774 453.872 635.945 440.092 635.847C442.163 635.933 454.16 639.516 459.397 640.396C467.245 641.715 474.58 641.911 482.692 642.465C486.389 657.273 478.003 685.875 479.882 698.932L489.654 715.504C493.673 715.42 492.876 714.923 497.425 714.189C496.339 721.727 497.037 716.516 499.074 722.247C501.682 729.577 497.607 726.418 500.005 730.435C504.538 725.256 516.458 699.867 520.491 690.757C529.405 670.619 527.204 660.15 525.583 637.336C531.173 636.626 544.746 632.626 548.734 629.578C548.829 625.799 549.785 629.534 547.657 626.853C545.865 624.595 547.983 626.608 544.987 624.961C538.784 625.248 534.723 628.276 529.79 629.563C529.5 629.639 527.061 630.049 526.909 630.054C524.787 630.114 525.487 630.145 524.225 629.644C522.24 620.157 525.075 614.861 526.037 605.653C525.726 605.977 525.386 606.4 525.135 606.653C518.649 613.201 509.611 613.219 494.464 617.854C488.704 619.616 487.326 620.408 481.894 617.99Z" fill="#7C2DA2"/>
<path fill-rule="evenodd" clip-rule="evenodd" d="M414.296 330.071C417.838 340.841 416.537 340.284 412.532 349.739C409.548 348.888 411.189 349.731 408.312 348.224L395.286 367.273C397.575 367.273 396.729 366.848 396.49 369.67C399.789 367.246 399.739 372.497 399.186 367.105C400.742 371.098 395.655 370.036 404.442 369.842C400.058 373.784 401.62 372.081 405.14 375.782C407.929 378.714 409.509 380.082 412.457 380.754C414.32 381.179 425.001 385.393 426.258 387.949C432.091 385.712 425.268 384.181 433.451 385.458L435.652 385.431C437.362 384.914 436.958 384.082 440.74 383.432C443.885 383.574 441.553 385.107 444.085 386.596C450.164 390.17 441.647 380.013 453.007 393.312C455.382 396.093 450.477 395.17 455.465 395.013C458.408 393.254 461.376 388.906 464.05 386.342C467.992 382.561 470.63 380.606 475.247 377.61C478.506 375.495 497.649 364.032 498.219 364.403C503.369 362.643 512.013 354.779 514.814 351.381L515.031 347.407C507.562 354.925 509.992 340.169 499.265 344.406L500.663 341.59C503.21 333.897 484.613 342.722 495.555 332.547L491.701 333.084C479.152 334.248 460.055 350.868 447.014 352.657L446.882 341.654C447.103 337.688 444.806 333.449 442.19 330.956L440.46 329.898C437.926 334.399 440.986 335.691 437.673 335.207C435.097 334.83 436.757 332.766 436.528 328.561C430.075 331.367 426.329 326.041 425.103 325.299C420.053 322.245 413.907 324.139 414.296 330.071Z" fill="#C596DA"/>
<path fill-rule="evenodd" clip-rule="evenodd" d="M414.296 330.071C413.907 324.139 420.053 322.245 425.103 325.299C426.329 326.041 430.075 331.367 436.528 328.561C436.757 332.766 435.097 334.83 437.673 335.207C440.987 335.691 437.926 334.399 440.46 329.898L442.19 330.956C444.806 333.449 447.103 337.688 446.882 341.654C461.06 327.499 467.154 332.731 476.463 318.712C498.89 284.94 443.119 246.523 417.742 280.021C412.207 287.327 411.304 286.697 402.255 291.176C399.064 317.636 390.71 318.768 414.296 330.071Z" fill="#D1ACE3"/>
<path fill-rule="evenodd" clip-rule="evenodd" d="M631.795 362.938C642.648 363.276 658.079 377.491 659.368 386.126L680.709 364.337C696.318 348.646 741.532 316.659 735.31 289.683C721.42 285.217 714.513 301.437 703.326 306.806C696.438 310.113 688.863 309.848 682.79 313.098C674.825 317.359 678.921 325.255 677.635 335.014C670.745 340.665 662.052 343.047 654.613 347.425L631.795 362.938Z" fill="#DCC2F1"/>
<path fill-rule="evenodd" clip-rule="evenodd" d="M604.955 389.597C605.581 394.656 600.951 400.309 599.304 405.003C596.897 406.154 602.714 408.629 595.679 405.168C598.742 415.545 578.98 423.428 570.065 428.303L535.065 446.137C542.583 449.978 532.467 450.241 543.061 449.812C546.168 449.686 547.586 449.04 550.819 451.531C556.98 456.279 563.569 460.036 568.972 460.5C568.372 456.966 567.502 457.678 569.255 456.252C570.627 455.134 568.012 456.649 571.175 455.576L580.878 455.134C581.023 455.119 581.396 455.024 581.542 454.998L583.718 454.411C599.908 450.303 582.412 463.266 598.398 454.982L606.633 453.221C608.383 456.228 607.655 454.238 608.192 458.062C611.898 456.297 608.902 458.312 611.865 455.522C612.985 454.468 613.868 453.063 614.887 451.787L625.439 438.362C628.202 434.259 628.326 433.358 631.393 432.434C630.339 429.574 630.975 414.054 616.475 396.661C613.277 392.825 609.433 393.496 609.238 386.953C608.883 387.219 607.517 388.119 607.217 388.299C606.926 388.475 606.4 388.781 606.107 388.956C605.807 389.134 605.334 389.375 604.955 389.597Z" fill="#BA83CE"/>
<path fill-rule="evenodd" clip-rule="evenodd" d="M396.49 369.67C390.153 373.666 381.029 399.77 380.329 411.717C380.504 411.916 380.785 411.953 380.858 412.307C380.939 412.694 381.314 412.833 381.422 412.967C381.544 413.118 381.9 413.555 382.038 413.727L396.356 415.401C396.357 422.53 392.38 431.775 404.745 426.082C405.607 428.134 404.858 425.992 404.469 431.203C407.399 430.291 408.681 427.011 413.506 433.051C413.633 433.211 413.873 433.625 414.077 433.897C414.305 433.652 414.642 432.924 414.753 433.153C414.757 433.161 419.381 427.533 425.869 427.211C435.487 426.733 429.977 437.171 441.196 422.308L443.903 419.079C445.581 408.774 452.484 403.249 455.465 395.013C450.477 395.17 455.382 396.093 453.007 393.312C441.647 380.013 450.164 390.17 444.085 386.596C441.553 385.107 443.885 383.574 440.74 383.432C436.958 384.082 437.362 384.914 435.652 385.431L433.451 385.458C425.268 384.181 432.091 385.712 426.258 387.949C425.001 385.393 414.32 381.179 412.457 380.754C409.509 380.082 407.929 378.714 405.14 375.782C401.62 372.081 400.058 373.784 404.442 369.842C395.655 370.036 400.742 371.098 399.186 367.105C399.739 372.497 399.789 367.246 396.49 369.67Z" fill="#BA83CE"/>
<path fill-rule="evenodd" clip-rule="evenodd" d="M343.971 289.915C344.937 287.961 345.325 288.355 343.463 288.347C344.695 291.732 343.801 289.78 345.016 292.151C356.428 290.74 346.249 292.489 353.126 288.957L363.505 282.548C363.88 282.311 365.439 284.174 365.577 278.3C364.256 281.482 365.007 278.494 367.666 280.348C365.051 267.745 344.416 234.378 337.781 223.312C328.211 207.351 313.693 203.592 301.718 195.445C296.331 191.779 295.288 187.335 289 187C289.841 201.064 304.228 202.403 307.211 214.952C301.078 217.007 294.777 215.901 292.985 221.671C320.613 234.19 322.753 203.026 336.183 266.329C337.076 270.537 337.973 274.45 338.936 278.114C340.252 283.123 340.691 286.558 343.971 289.915Z" fill="#D1ACE3"/>
<path fill-rule="evenodd" clip-rule="evenodd" d="M343.971 289.915C344.06 296.017 360.936 327.584 364.558 335.187C373.149 353.214 377.604 363.564 380.97 385.894C385.507 385.532 381.38 386.174 383.468 384.117C378.989 380.476 380.236 377.747 384.791 368.527C390.121 357.741 395.319 354.773 393.5 337.599C393.169 334.472 390.041 325.815 390.169 325.644C386.934 317.81 380.622 313.053 376.379 304.694C373.38 298.784 370.078 283.516 367.666 280.348C365.007 278.494 364.256 281.482 365.577 278.3C365.439 284.174 363.88 282.311 363.505 282.548L353.126 288.957C346.249 292.489 356.428 290.74 345.016 292.151C343.801 289.78 344.695 291.732 343.463 288.347C345.325 288.355 344.937 287.961 343.971 289.915Z" fill="#C596DA"/>
<path fill-rule="evenodd" clip-rule="evenodd" d="M493.896 757.277L494.641 762.291C491.404 761.126 492.411 761.828 489.603 761.346C481.508 759.956 482.709 758.181 481.249 763.417C476.874 761.748 479.933 763.182 478.244 760.857C477.947 760.449 477.991 759.187 477.436 758.223C474.63 762.971 473.769 757.913 469.659 759.208L468 755.32C462.396 761.349 459.952 789.032 460.014 798.951C460.239 835.034 479.052 855.741 480.251 815.003C480.578 803.907 483.8 798.718 488.96 792.52C497.878 781.809 510.392 777.093 501.95 765.769C500.888 764.345 499.573 762.787 498.325 761.432L493.896 757.277Z" fill="#AE6DC9"/>
<path fill-rule="evenodd" clip-rule="evenodd" d="M491.701 333.084L495.555 332.547C484.613 342.722 503.21 333.897 500.663 341.59L499.265 344.406C509.992 340.169 507.562 354.925 515.031 347.407L514.814 351.382L522.615 346.188C534.842 336.455 562.885 315.309 567.945 304.381L568.628 300.599C564.673 303.496 567.991 301.987 562.824 303.594C561.031 295.653 553.921 297.741 553.584 290.359C551.857 294.114 553.179 292.949 548.727 294.1C547.584 291.933 549.67 290.858 545.894 290.403C538.447 292.323 528.683 306.571 521.294 312.898C517.102 316.487 511.892 319.897 507.244 322.862C502.56 325.849 495.203 328.495 491.701 333.084Z" fill="#D1ACE3"/>
<path fill-rule="evenodd" clip-rule="evenodd" d="M545.894 290.403C549.67 290.858 547.584 291.933 548.727 294.1C553.179 292.949 551.857 294.114 553.584 290.359C553.921 297.741 561.031 295.653 562.824 303.594C567.991 301.987 564.673 303.496 568.628 300.599L567.945 304.381L575.415 297.657C577.749 294.939 578.761 293.493 581.383 290.32C585.584 285.237 589.222 280.088 593.644 274.597C606.443 258.703 609.639 274.789 633.499 277.301C631.306 264.1 626.446 272.703 624.6 263.023C632.168 256.344 649.356 257.101 653.156 247.025C651.184 245.775 652.908 246.29 649.87 245.83L620.665 249.558C595.202 252.165 590.422 258.37 568.301 273.239C564.172 276.014 561.256 278.074 557.202 280.802C552.063 284.26 548.614 285.855 545.894 290.403Z" fill="#DCC2F1"/>
<path fill-rule="evenodd" clip-rule="evenodd" d="M595.679 405.168C602.714 408.629 596.897 406.154 599.304 405.003C600.951 400.309 605.581 394.656 604.955 389.597C569.078 364.921 505.715 391.675 492.387 419.57C506.153 413.158 508.82 404.946 538.139 399.127C548.418 397.087 559.225 396.605 569.948 398.003C580.198 399.341 588.783 404.197 595.679 405.168Z" fill="#9D63B7"/>
<path fill-rule="evenodd" clip-rule="evenodd" d="M648.941 500.32C643.779 519.402 641.246 529.191 632.401 545.395C628.273 552.959 625.012 558.018 620.181 565.139C615.392 572.199 609.526 577.241 606.301 583.857C609.919 584.799 606.173 583.033 607.906 585.277C613.256 592.208 605.287 583.401 608.942 586.986C612.073 590.059 609.989 583.265 612.238 589.876C619.489 586.311 623.176 579.493 628.751 573.66C634.859 567.269 638.62 562.075 643.435 554.998C648.362 547.759 664.647 521.02 664.327 511.453L665.206 506.554C659.03 509.368 664.858 507.659 659.483 509.594L659.002 501.968C654.409 504.627 652.902 501.551 651.068 497.815C651.781 502.688 651.453 498.159 648.941 500.32Z" fill="#AE6DC9"/>
<path fill-rule="evenodd" clip-rule="evenodd" d="M455.465 395.013C452.484 403.249 445.581 408.774 443.903 419.079C442.687 429.568 443.562 436.808 449.72 443.322C452.875 446.659 454.509 447.669 459.748 449.459C463.53 450.751 469.277 452.285 471.716 449.494C450.39 431.556 474.981 386.531 489.889 372.162C492.801 369.355 496.287 367.616 498.219 364.403C497.649 364.032 478.506 375.495 475.247 377.61C470.63 380.606 467.992 382.561 464.05 386.342C461.376 388.906 458.408 393.254 455.465 395.013Z" fill="#9B45BC"/>
<path fill-rule="evenodd" clip-rule="evenodd" d="M609.139 383.901C612.219 382.768 610.563 383.339 614.231 382.979C616.459 385.688 619.91 389.109 622.504 391.575C629.706 387.809 629.038 391.748 634.633 387.649C641.44 382.661 633.762 385.02 645.154 384.087C641.307 376.874 632.337 372.107 629.948 369.717L627.42 366.286C618.835 367.28 598.731 346.58 553.816 357.451L546.779 359.945C544.651 361.251 545.54 360.658 544.17 362.038C565.64 361.334 580.806 362.96 598.459 373.349C611.953 381.291 610.971 378.463 609.139 383.901Z" fill="#DCC2F1"/>
<path fill-rule="evenodd" clip-rule="evenodd" d="M622.504 391.575C626.494 395.266 638.603 410.811 638.363 417.536C643.252 421.008 643.49 427.396 646.059 434.708C646.075 434.752 647.204 437.611 647.286 437.776C649.161 441.532 647.686 438.98 649.142 440.776L650.576 435.383C659.603 433.495 655.849 433.566 663.964 433.813L665.306 433.881C669.856 432.712 664.518 428.519 668.149 423.273C664.791 409.517 656.778 401.799 654.362 393.097C651.51 390.803 652.387 391.625 650.049 388.345C648.268 385.846 650.029 387.401 647.686 385.375C644.563 382.673 649.958 385.196 645.154 384.087C633.762 385.02 641.44 382.661 634.633 387.649C629.038 391.748 629.706 387.809 622.504 391.575Z" fill="#D1ACE3"/>
<path fill-rule="evenodd" clip-rule="evenodd" d="M468 755.32L469.659 759.208C473.769 757.913 474.63 762.971 477.436 758.223C477.991 759.187 477.947 760.449 478.244 760.857C479.933 763.182 476.874 761.748 481.249 763.417C482.709 758.181 481.508 759.956 489.603 761.346C492.411 761.828 491.404 761.126 494.641 762.291L493.896 757.277C490.92 741.849 496.204 742.7 500.005 730.435C497.607 726.418 501.682 729.577 499.074 722.247C497.037 716.516 496.339 721.727 497.425 714.189C492.876 714.923 493.673 715.42 489.654 715.504L479.882 698.932C477.097 702.766 467.942 754.253 468 755.32Z" fill="#9B45BC"/>
<path fill-rule="evenodd" clip-rule="evenodd" d="M651.908 458.721C650.813 465.572 651.953 473.194 651.46 480.371C650.985 487.265 649.703 493.573 648.941 500.32C651.453 498.159 651.781 502.688 651.068 497.815C652.902 501.551 654.409 504.627 659.002 501.968L659.483 509.594C664.858 507.659 659.031 509.368 665.206 506.554L664.328 511.453C669.334 506.02 673.26 483.451 672.272 477.756L671.385 458.999C672.449 460.349 664.526 458.285 660.709 456.763C660.425 456.65 660.049 456.493 659.792 456.374C659.564 456.268 659.215 456.066 659.012 455.956L652.614 451.893L651.908 458.721Z" fill="#BA83CE"/>
<path fill-rule="evenodd" clip-rule="evenodd" d="M544.987 624.961C547.983 626.608 545.865 624.595 547.657 626.853C549.785 629.534 548.829 625.799 548.734 629.578C567.575 625.463 606.025 599.767 612.238 589.876C609.989 583.265 612.073 590.059 608.942 586.986C605.287 583.401 613.256 592.208 607.906 585.277C606.173 583.033 609.919 584.799 606.301 583.857C601.695 586.145 579.966 608.626 553.768 619.999C549.477 621.863 547.803 621.773 544.987 624.961Z" fill="#9B45BC"/>
<path fill-rule="evenodd" clip-rule="evenodd" d="M609.139 383.901L609.238 386.952C609.432 393.496 613.277 392.825 616.475 396.661C630.975 414.054 630.339 429.574 631.393 432.434C641.04 441.88 640.708 451.546 647.37 460.241C648.062 453.022 645.9 442.771 643.618 436.254C640.286 426.737 636.016 426.362 638.362 417.536C638.603 410.811 626.494 395.266 622.504 391.575C619.91 389.109 616.459 385.688 614.231 382.979C610.563 383.339 612.219 382.768 609.139 383.901Z" fill="#9D63B7"/>
<path fill-rule="evenodd" clip-rule="evenodd" d="M649.142 440.776C648.605 444.498 649.014 446.079 649.559 450.155C649.734 451.459 650.003 453.65 650.321 454.857C651.466 459.206 650.034 456.213 651.908 458.721L652.614 451.893L659.012 455.956C659.215 456.066 659.564 456.268 659.792 456.374C660.049 456.493 660.425 456.65 660.709 456.763C664.526 458.285 672.449 460.349 671.385 458.999L672.272 477.756L674.042 472.382C675.898 459.725 672.208 435.101 668.149 423.273C664.518 428.519 669.856 432.712 665.306 433.881L663.964 433.813C655.849 433.566 659.603 433.495 650.576 435.383L649.142 440.776Z" fill="#C596DA"/>
<path fill-rule="evenodd" clip-rule="evenodd" d="M482.354 612.697L481.894 617.99C487.326 620.408 488.704 619.616 494.464 617.854C509.611 613.219 518.649 613.201 525.135 606.653C525.386 606.4 525.726 605.977 526.037 605.653L528.041 597.422C516.372 600.356 494.356 607.683 482.969 607.602L482.354 612.697Z" fill="#651C88"/>
<path fill-rule="evenodd" clip-rule="evenodd" d="M383.468 384.117C387.411 377.531 390.967 371.656 395.286 367.273L408.312 348.224C406.461 344.575 392.942 326.968 390.169 325.644C390.041 325.815 393.169 334.472 393.5 337.599C395.318 354.773 390.121 357.741 384.791 368.527C380.235 377.747 378.989 380.476 383.468 384.117Z" fill="#9D63B7"/>
<path fill-rule="evenodd" clip-rule="evenodd" d="M627.42 366.286L629.948 369.717C632.337 372.107 641.307 376.874 645.154 384.087C649.958 385.196 644.563 382.673 647.686 385.375C650.029 387.402 648.268 385.846 650.049 388.345C652.387 391.625 651.51 390.803 654.362 393.097C656.492 389.427 657.658 389.658 659.368 386.126C658.079 377.49 642.649 363.276 631.795 362.938C630.033 364.617 629.54 365.088 627.42 366.286Z" fill="#BA83CE"/>
</g>
<defs>
<clipPath id="clip0_26_1135">
<rect width="1024" height="1024" fill="white"/>
</clipPath>
</defs>
</svg>
