<svg width="19" height="18" viewBox="0 0 19 18" fill="none" xmlns="http://www.w3.org/2000/svg">
<path d="M17.5712 8.17625H12.8338L16.9364 5.80182L16.1228 4.38858L12.0197 6.76302L14.3879 2.65062L12.9784 1.8349L10.6097 5.94626V1.19843H8.9815V5.94678L6.61281 1.8349L5.20279 2.65062L7.57096 6.76198L3.4689 4.38858L2.65481 5.80182L6.75739 8.17625H2.02002V9.80822H6.75687L2.65481 12.1827L3.46838 13.5959L7.57148 11.2215L5.20279 15.3338L6.61229 16.1496L8.9815 12.0377V16.7855H10.6097V11.9359L13.0219 16.1236L14.3438 15.3588L11.9311 11.17L16.1218 13.5954L16.9358 12.1821L12.8338 9.8077H17.5706V8.17625H17.5712V8.17625ZM9.79559 11.2105C9.50494 11.2106 9.21714 11.1532 8.9486 11.0417C8.68007 10.9302 8.43607 10.7668 8.23052 10.5608C8.02498 10.3547 7.86193 10.1101 7.75067 9.8409C7.63942 9.57168 7.58214 9.28313 7.5821 8.99172C7.58207 8.7003 7.63928 8.41173 7.75048 8.14249C7.86167 7.87324 8.02467 7.6286 8.23016 7.42251C8.43565 7.21643 8.67962 7.05294 8.94812 6.94139C9.21663 6.82984 9.50442 6.77241 9.79507 6.77237C10.3821 6.7723 10.945 7.00603 11.3601 7.42214C11.7752 7.83825 12.0085 8.40266 12.0086 8.9912C12.0086 9.57973 11.7755 10.1442 11.3605 10.5604C10.9455 10.9766 10.3826 11.2105 9.79559 11.2105V11.2105Z" fill="white"/>
</svg>
